<svg width="40" height="24" viewBox="0 0 40 24" fill="none" xmlns="http://www.w3.org/2000/svg">
<g clip-path="url(#clip0_mobile_arrow)">
<path d="M39.5153 12.2655L32.7653 19.0155C32.6949 19.0859 32.5995 19.1254 32.5 19.1254C32.4005 19.1254 32.3051 19.0859 32.2347 19.0155C32.1643 18.9452 32.1248 18.8497 32.1248 18.7502C32.1248 18.6507 32.1643 18.5553 32.2347 18.4849L38.3444 12.3752H0.75C0.650544 12.3752 0.555161 12.3357 0.484835 12.2654C0.414509 12.195 0.375 12.0997 0.375 12.0002C0.375 11.9008 0.414509 11.8054 0.484835 11.735C0.555161 11.6647 0.650544 11.6252 0.75 11.6252H38.3444L32.2347 5.51552C32.1643 5.44516 32.1248 5.34972 32.1248 5.25021C32.1248 5.1507 32.1643 5.05526 32.2347 4.9849C32.3051 4.91453 32.4005 4.875 32.5 4.875C32.5995 4.875 32.6949 4.91453 32.7653 4.9849L39.5153 11.7349C39.5502 11.7697 39.5778 11.8111 39.5967 11.8566C39.6156 11.9021 39.6253 11.9509 39.6253 12.0002C39.6253 12.0495 39.6156 12.0983 39.5967 12.1438C39.5778 12.1893 39.5502 12.2307 39.5153 12.2655Z" fill="#35A1CC"/>
</g>
<defs>
<clipPath id="clip0_mobile_arrow">
<rect width="40" height="24" fill="white"/>
</clipPath>
</defs>
</svg>
