<svg width="24" height="20" viewBox="0 0 24 20" fill="none" xmlns="http://www.w3.org/2000/svg">
<g clip-path="url(#clip0_655_3765)">
<path d="M11.5353 19.2653L4.78526 12.5153C4.71489 12.4449 4.67536 12.3495 4.67536 12.25C4.67536 12.1505 4.71489 12.0551 4.78526 11.9847C4.85562 11.9143 4.95106 11.8748 5.05057 11.8748C5.15008 11.8748 5.24552 11.9143 5.31589 11.9847L11.4256 18.0944V0.5C11.4256 0.400544 11.4651 0.305161 11.5354 0.234835C11.6057 0.164509 11.7011 0.125 11.8006 0.125C11.9 0.125 11.9954 0.164509 12.0657 0.234835C12.1361 0.305161 12.1756 0.400544 12.1756 0.5V18.0944L18.2853 11.9847C18.3556 11.9143 18.4511 11.8748 18.5506 11.8748C18.6501 11.8748 18.7455 11.9143 18.8159 11.9847C18.8863 12.0551 18.9258 12.1505 18.9258 12.25C18.9258 12.3495 18.8863 12.4449 18.8159 12.5153L12.0659 19.2653C12.0311 19.3002 11.9897 19.3278 11.9442 19.3467C11.8987 19.3656 11.8499 19.3753 11.8006 19.3753C11.7513 19.3753 11.7025 19.3656 11.657 19.3467C11.6114 19.3278 11.5701 19.3002 11.5353 19.2653Z" fill="#7B0EE2"/>
</g>
<defs>
<clipPath id="clip0_655_3765">
<rect width="20" height="24" fill="white" transform="matrix(0 1 -1 0 24 0)"/>
</clipPath>
</defs>
</svg>
